<?xml version="1.0" encoding="UTF-8"?>
<svg id="Layer_1" xmlns="http://www.w3.org/2000/svg" version="1.1" viewBox="0 0 1080 1080">
  <!-- Generator: Adobe Illustrator 29.8.1, SVG Export Plug-In . SVG Version: 2.1.1 Build 2)  -->
  <defs>
    <style>
      .st0 {
        fill: #010101;
      }
    </style>
  </defs>
  <path class="st0" d="M557.34,96.69s23.97,54.74,30.97,84.76c6.99,30.02,18.98,82.99,24.47,116.54,5.49,33.55,14.98,104.18,15.48,157.15.5,52.97,3,137.73-1.5,217.19-4.49,79.46-11.49,157.15-19.48,185.4-7.99,28.25-20.98,86.52-27.47,105.95-6.49,19.42-22.97,45.91-24.97,49.44s2.5-916.43,2.5-916.43Z"/>
  <path class="st0" d="M555.4,1013.13s-23.97-54.74-30.97-84.76c-6.99-30.02-18.98-82.99-24.47-116.54-5.49-33.55-14.98-104.18-15.48-157.15-.5-52.97-3-137.73,1.5-217.19,4.49-79.46,11.49-157.15,19.48-185.4,7.99-28.25,20.98-86.52,27.47-105.95,6.49-19.42,22.97-45.91,24.97-49.44,2-3.53-2.5,916.43-2.5,916.43Z"/>
  <path class="st0" d="M731.66,208.6s22.93,41.37,29.62,64.06c6.69,22.69,18.15,62.72,23.41,88.08,5.25,25.36,14.33,78.74,14.81,118.77.48,40.04,2.87,104.09-1.43,164.14-4.3,60.05-10.99,118.77-18.63,140.12-7.64,21.35-20.06,65.39-26.27,80.07-6.21,14.68-21.97,34.7-23.88,37.37-1.91,2.67,2.39-692.61,2.39-692.61Z"/>
  <path class="st0" d="M729.81,901.22s-22.93-41.37-29.62-64.06c-6.69-22.69-18.15-62.72-23.41-88.08-5.25-25.36-14.33-78.74-14.81-118.77-.48-40.04-2.87-104.09,1.43-164.14,4.3-60.05,10.99-118.77,18.63-140.12,7.64-21.35,20.06-65.39,26.27-80.07,6.21-14.68,21.97-34.7,23.88-37.37s-2.39,692.61-2.39,692.61Z"/>
  <path class="st0" d="M392.59,208.6s22.93,41.37,29.62,64.06c6.69,22.69,18.15,62.72,23.41,88.08,5.25,25.36,14.33,78.74,14.81,118.77.48,40.04,2.87,104.09-1.43,164.14-4.3,60.05-10.99,118.77-18.63,140.12-7.64,21.35-20.06,65.39-26.27,80.07-6.21,14.68-21.97,34.7-23.88,37.37-1.91,2.67,2.39-692.61,2.39-692.61Z"/>
  <path class="st0" d="M390.74,901.22s-22.93-41.37-29.62-64.06c-6.69-22.69-18.15-62.72-23.41-88.08-5.25-25.36-14.33-78.74-14.81-118.77s-2.87-104.09,1.43-164.14,10.99-118.77,18.63-140.12c7.64-21.35,20.06-65.39,26.27-80.07,6.21-14.68,21.97-34.7,23.88-37.37,1.91-2.67-2.39,692.61-2.39,692.61Z"/>
  <path class="st0" d="M59.98,333.21s14.68,26.48,18.96,41.01c4.28,14.52,11.62,40.15,14.98,56.39,3.36,16.23,9.17,50.41,9.48,76.04.31,25.63,1.83,66.64-.92,105.08-2.75,38.45-7.03,76.04-11.93,89.71-4.89,13.67-12.84,41.86-16.82,51.26-3.98,9.4-14.07,22.21-15.29,23.92s1.53-443.4,1.53-443.4Z"/>
  <path class="st0" d="M58.8,776.61s-14.68-26.48-18.96-41.01c-4.28-14.52-11.62-40.15-14.98-56.39-3.36-16.23-9.17-50.41-9.48-76.04s-1.83-66.64.92-105.08c2.75-38.45,7.03-76.04,11.93-89.71,4.89-13.67,12.84-41.86,16.82-51.26,3.98-9.4,14.07-22.21,15.29-23.92s-1.53,443.4-1.53,443.4Z"/>
  <path class="st0" d="M1026.68,333.21s14.68,26.48,18.96,41.01c4.28,14.52,11.62,40.15,14.98,56.39,3.36,16.23,9.17,50.41,9.48,76.04.31,25.63,1.83,66.64-.92,105.08-2.75,38.45-7.03,76.04-11.93,89.71-4.89,13.67-12.84,41.86-16.82,51.26-3.98,9.4-14.07,22.21-15.29,23.92s1.53-443.4,1.53-443.4Z"/>
  <path class="st0" d="M1025.5,776.61s-14.68-26.48-18.96-41.01c-4.28-14.52-11.62-40.15-14.98-56.39-3.36-16.23-9.17-50.41-9.48-76.04-.31-25.63-1.83-66.64.92-105.08,2.75-38.45,7.03-76.04,11.93-89.71,4.89-13.67,12.84-41.86,16.82-51.26,3.98-9.4,14.07-22.21,15.29-23.92,1.22-1.71-1.53,443.4-1.53,443.4Z"/>
  <path class="st0" d="M224.15,85.15s22.93,56.12,29.62,86.89c6.69,30.77,18.15,85.08,23.41,119.47,5.25,34.39,14.33,106.8,14.81,161.11.48,54.31,2.87,141.2-1.43,222.66-4.3,81.46-10.99,161.11-18.63,190.07-7.64,28.96-20.06,88.7-26.27,108.61-6.21,19.91-21.97,47.07-23.88,50.69s2.39-939.5,2.39-939.5Z"/>
  <path class="st0" d="M222.3,1024.67s-22.93-56.12-29.62-86.89c-6.69-30.77-18.15-85.08-23.41-119.47-5.25-34.39-14.33-106.8-14.81-161.11-.48-54.31-2.87-141.2,1.43-222.66s10.99-161.11,18.63-190.07c7.64-28.96,20.06-88.7,26.27-108.61,6.21-19.91,21.97-47.07,23.88-50.69s-2.39,939.5-2.39,939.5Z"/>
  <path class="st0" d="M890.87,85.15s22.93,56.12,29.62,86.89c6.69,30.77,18.15,85.08,23.41,119.47,5.25,34.39,14.33,106.8,14.81,161.11.48,54.31,2.87,141.2-1.43,222.66-4.3,81.46-10.99,161.11-18.63,190.07-7.64,28.96-20.06,88.7-26.27,108.61-6.21,19.91-21.97,47.07-23.88,50.69-1.91,3.62,2.39-939.5,2.39-939.5Z"/>
  <path class="st0" d="M889.02,1024.67s-22.93-56.12-29.62-86.89c-6.69-30.77-18.15-85.08-23.41-119.47-5.25-34.39-14.33-106.8-14.81-161.11s-2.87-141.2,1.43-222.66c4.3-81.46,10.99-161.11,18.63-190.07,7.64-28.96,20.06-88.7,26.27-108.61,6.21-19.91,21.97-47.07,23.88-50.69,1.91-3.62-2.39,939.5-2.39,939.5Z"/>
</svg>